<?xml version="1.0" standalone="no"?>
<!DOCTYPE svg PUBLIC "-//W3C//DTD SVG 20010904//EN"
 "http://www.w3.org/TR/2001/REC-SVG-20010904/DTD/svg10.dtd">
<svg version="1.0" xmlns="http://www.w3.org/2000/svg"
 width="186.000000pt" height="178.000000pt" viewBox="0 0 186.000000 178.000000"
 preserveAspectRatio="xMidYMid meet">

<g transform="translate(0.000000,178.000000) scale(0.100000,-0.100000)"
fill="#000000" stroke="none">
<path d="M887 1312 l-37 -38 38 -37 38 -37 37 38 37 38 -38 37 -38 37 -37 -38z"/>
<path d="M562 997 l-182 -182 185 -185 185 -185 218 218 c119 119 222 217 228
217 13 0 64 -52 64 -65 0 -6 -64 -74 -142 -152 l-143 -143 38 -37 37 -38 183
183 182 182 -113 112 -112 113 -143 -143 c-78 -78 -147 -142 -153 -142 -13 0
-64 52 -64 66 0 5 65 74 145 154 l145 144 -32 33 c-18 18 -37 33 -43 33 -5 0
-91 -81 -190 -180 l-180 -180 75 -75 75 -75 -38 -37 -37 -38 -110 110 -110
110 147 147 147 148 -34 35 c-19 19 -36 35 -40 35 -3 0 -87 -82 -188 -183z"/>
<path d="M887 402 l-37 -38 38 -37 38 -37 37 38 37 38 -38 37 -38 37 -37 -38z"/>
</g>
</svg>
